# xmcd CD database file
#
# Track frame offsets:
#	150
#	5712
#	32599
#	68875
#	94385
#	123161
#	129283
#	132395
#	158722
#	195967
#	221477
#	236477
#	261018
#	295763
#
# Disc length: 4427 seconds
#
# Revision: 0
# Processed by: cddbd v1.5.2PL0 Copyright (c) Steve Scherf et al.
# Submitted via: CDex 1.51
#
DISCID=bf11490e
DTITLE=chet baker - complete holland 1955
DYEAR=1955
DGENRE=Jazz
TTITLE0=intro
TTITLE1=tommyhawk
TTITLE2=indian summer
TTITLE3=Im glad there is you
TTITLE4=but not for me
TTITLE5=my funny valentine (incomplete)
TTITLE6=intro2
TTITLE7=tommyhawk
TTITLE8=indian summer
TTITLE9=someone to watch over me
TTITLE10=imagination
TTITLE11=CTA into Exitus
TTITLE12=walkin
TTITLE13=indian summer
EXTD=YEAR: 1955
EXTT0=
EXTT1=
EXTT2=
EXTT3=
EXTT4=
EXTT5=
EXTT6=
EXTT7=
EXTT8=
EXTT9=
EXTT10=
EXTT11=
EXTT12=
EXTT13=
PLAYORDER=
